<svg width="12" height="8" viewBox="0 0 12 8" fill="none" xmlns="http://www.w3.org/2000/svg">
<path d="M10.5 0.25H1.5C1.30109 0.25 1.11032 0.329018 0.96967 0.46967C0.829018 0.610322 0.75 0.801088 0.75 1V2.125C0.75 2.32391 0.829018 2.51468 0.96967 2.65533C1.11032 2.79598 1.30109 2.875 1.5 2.875V7C1.5 7.19891 1.57902 7.38968 1.71967 7.53033C1.86032 7.67098 2.05109 7.75 2.25 7.75H9.75C9.94891 7.75 10.1397 7.67098 10.2803 7.53033C10.421 7.38968 10.5 7.19891 10.5 7V2.875C10.6989 2.875 10.8897 2.79598 11.0303 2.65533C11.171 2.51468 11.25 2.32391 11.25 2.125V1C11.25 0.801088 11.171 0.610322 11.0303 0.46967C10.8897 0.329018 10.6989 0.25 10.5 0.25ZM9.75 7H2.25V2.875H9.75V7ZM10.5 2.125H1.5V1H10.5V2.125ZM4.5 4.375C4.5 4.27554 4.53951 4.18016 4.60984 4.10983C4.68016 4.03951 4.77554 4 4.875 4H7.125C7.22446 4 7.31984 4.03951 7.39017 4.10983C7.46049 4.18016 7.5 4.27554 7.5 4.375C7.5 4.47446 7.46049 4.56984 7.39017 4.64017C7.31984 4.71049 7.22446 4.75 7.125 4.75H4.875C4.77554 4.75 4.68016 4.71049 4.60984 4.64017C4.53951 4.56984 4.5 4.47446 4.5 4.375Z" fill="#FF7E2B"/>
</svg>
