<svg width="12" height="12" viewBox="0 0 12 12" fill="none" xmlns="http://www.w3.org/2000/svg">
<path d="M10.4606 3.20719L9.71062 1.70719C9.67945 1.64489 9.63153 1.5925 9.57225 1.5559C9.51297 1.51931 9.44467 1.49995 9.375 1.5H2.625C2.55533 1.49995 2.48703 1.51931 2.42775 1.5559C2.36847 1.5925 2.32055 1.64489 2.28938 1.70719L1.53938 3.20719C1.51353 3.25936 1.50005 3.31678 1.5 3.375V9.75C1.5 9.94891 1.57902 10.1397 1.71967 10.2803C1.86032 10.421 2.05109 10.5 2.25 10.5H9.75C9.94891 10.5 10.1397 10.421 10.2803 10.2803C10.421 10.1397 10.5 9.94891 10.5 9.75V3.375C10.4999 3.31678 10.4865 3.25936 10.4606 3.20719ZM2.85656 2.25H9.14344L9.51844 3H2.48156L2.85656 2.25ZM9.75 9.75H2.25V3.75H9.75V9.75ZM7.76531 6.10969C7.80015 6.14453 7.82779 6.18589 7.84665 6.23141C7.8655 6.27694 7.87521 6.32573 7.87521 6.375C7.87521 6.42427 7.8655 6.47306 7.84665 6.51859C7.82779 6.56411 7.80015 6.60547 7.76531 6.64031C7.73047 6.67515 7.68911 6.70279 7.64359 6.72165C7.59806 6.7405 7.54927 6.75021 7.5 6.75021C7.45073 6.75021 7.40194 6.7405 7.35641 6.72165C7.31089 6.70279 7.26953 6.67515 7.23469 6.64031L6.375 5.78016V8.625C6.375 8.72446 6.33549 8.81984 6.26517 8.89017C6.19484 8.96049 6.09946 9 6 9C5.90054 9 5.80516 8.96049 5.73484 8.89017C5.66451 8.81984 5.625 8.72446 5.625 8.625V5.78016L4.76531 6.64031C4.73047 6.67515 4.68911 6.70279 4.64359 6.72165C4.59806 6.7405 4.54927 6.75021 4.5 6.75021C4.45073 6.75021 4.40194 6.7405 4.35641 6.72165C4.31089 6.70279 4.26953 6.67515 4.23469 6.64031C4.19985 6.60547 4.17221 6.56411 4.15335 6.51859C4.1345 6.47306 4.12479 6.42427 4.12479 6.375C4.12479 6.32573 4.1345 6.27694 4.15335 6.23141C4.17221 6.18589 4.19985 6.14453 4.23469 6.10969L5.73469 4.60969C5.76951 4.57482 5.81087 4.54716 5.8564 4.52829C5.90192 4.50942 5.95072 4.49971 6 4.49971C6.04928 4.49971 6.09808 4.50942 6.1436 4.52829C6.18913 4.54716 6.23049 4.57482 6.26531 4.60969L7.76531 6.10969Z" fill="#FF7E2B"/>
</svg>
