<svg width="319" height="58" viewBox="0 0 319 58" fill="none" xmlns="http://www.w3.org/2000/svg">
<path d="M0.140165 28.6046L23.8699 16.8413L23.8701 40.3703L0.140165 28.6046Z" fill="#FF7E2B"/>
<path d="M69.3161 28.6036L90.629 16.1478L90.9751 40.5436L69.3161 28.6036Z" fill="#D1021F"/>
<path d="M114.851 28.6056L90.4521 16.1478L90.9712 40.5442L114.851 28.6056Z" fill="#D1021F"/>
<path d="M43.7276 28.4324L76.442 9.4003L57.5816 0.230168L38.6395 9.4003L38.6443 47.8102L57.5816 57.4996L77.3065 47.2913L43.7276 28.4324Z" fill="#1B80C7"/>
<path d="M146.984 41H140.016L135.5 32.2656L133.672 33.3594V41H127.469V18.1562H133.672V28.0781C133.932 27.5781 134.229 27.0781 134.562 26.5781C134.906 26.0781 135.24 25.6042 135.562 25.1562L140.359 18.1562H147.109L139.906 28.3906L146.984 41ZM170.844 29.5469C170.844 31.3073 170.63 32.9115 170.203 34.3594C169.786 35.7969 169.13 37.0365 168.234 38.0781C167.339 39.1198 166.188 39.9219 164.781 40.4844C163.375 41.0365 161.693 41.3125 159.734 41.3125C157.818 41.3125 156.156 41.0365 154.75 40.4844C153.354 39.9219 152.203 39.125 151.297 38.0938C150.391 37.0521 149.719 35.8073 149.281 34.3594C148.844 32.9115 148.625 31.2969 148.625 29.5156C148.625 27.1406 149.016 25.0781 149.797 23.3281C150.589 21.5677 151.807 20.2083 153.453 19.25C155.099 18.2812 157.203 17.7969 159.766 17.7969C162.37 17.7969 164.484 18.2812 166.109 19.25C167.745 20.2188 168.943 21.5833 169.703 23.3438C170.464 25.1042 170.844 27.1719 170.844 29.5469ZM155.125 29.5469C155.125 30.9219 155.281 32.1042 155.594 33.0938C155.906 34.0833 156.401 34.8438 157.078 35.375C157.755 35.9062 158.641 36.1719 159.734 36.1719C160.87 36.1719 161.771 35.9062 162.438 35.375C163.115 34.8438 163.599 34.0833 163.891 33.0938C164.193 32.1042 164.344 30.9219 164.344 29.5469C164.344 27.4844 164 25.8542 163.312 24.6562C162.625 23.4583 161.443 22.8594 159.766 22.8594C158.651 22.8594 157.75 23.1302 157.062 23.6719C156.385 24.2135 155.891 24.9844 155.578 25.9844C155.276 26.9844 155.125 28.1719 155.125 29.5469ZM194.359 29.0938C194.359 31.75 193.865 33.9583 192.875 35.7188C191.885 37.4792 190.49 38.8021 188.688 39.6875C186.896 40.5625 184.786 41 182.359 41H174.969V18.1562H182.875C185.333 18.1562 187.417 18.5781 189.125 19.4219C190.833 20.2656 192.13 21.5 193.016 23.125C193.911 24.75 194.359 26.7396 194.359 29.0938ZM187.953 29.3125C187.953 27.9271 187.766 26.7812 187.391 25.875C187.026 24.9583 186.474 24.276 185.734 23.8281C184.995 23.3698 184.062 23.1406 182.938 23.1406H181.141V35.9375H182.516C184.391 35.9375 185.766 35.3958 186.641 34.3125C187.516 33.2188 187.953 31.5521 187.953 29.3125ZM212.031 41H198.469V18.1562H212.031V23.1094H204.641V26.7031H211.484V31.6562H204.641V35.9688H212.031V41ZM216.031 41V18.1562H222.234V41H216.031ZM248.938 41H240.844L232.5 24.9062H232.359C232.411 25.3958 232.458 25.9844 232.5 26.6719C232.542 27.3594 232.578 28.0625 232.609 28.7812C232.641 29.4896 232.656 30.1302 232.656 30.7031V41H227.188V18.1562H235.25L243.562 34.0312H243.656C243.625 33.5312 243.594 32.9531 243.562 32.2969C243.531 31.6302 243.5 30.9583 243.469 30.2812C243.448 29.6042 243.438 29.0052 243.438 28.4844V18.1562H248.938V41Z" fill="#1B80C7"/>
<path d="M270.164 41H264.094L257.836 28.9297H257.73C257.77 29.2969 257.805 29.7383 257.836 30.2539C257.867 30.7695 257.895 31.2969 257.918 31.8359C257.941 32.3672 257.953 32.8477 257.953 33.2773V41H253.852V23.8672H259.898L266.133 35.7734H266.203C266.18 35.3984 266.156 34.9648 266.133 34.4727C266.109 33.9727 266.086 33.4688 266.062 32.9609C266.047 32.4531 266.039 32.0039 266.039 31.6133V23.8672H270.164V41ZM289.898 32.4102C289.898 33.7305 289.738 34.9336 289.418 36.0195C289.105 37.0977 288.613 38.0273 287.941 38.8086C287.27 39.5898 286.406 40.1914 285.352 40.6133C284.297 41.0273 283.035 41.2344 281.566 41.2344C280.129 41.2344 278.883 41.0273 277.828 40.6133C276.781 40.1914 275.918 39.5938 275.238 38.8203C274.559 38.0391 274.055 37.1055 273.727 36.0195C273.398 34.9336 273.234 33.7227 273.234 32.3867C273.234 30.6055 273.527 29.0586 274.113 27.7461C274.707 26.4258 275.621 25.4062 276.855 24.6875C278.09 23.9609 279.668 23.5977 281.59 23.5977C283.543 23.5977 285.129 23.9609 286.348 24.6875C287.574 25.4141 288.473 26.4375 289.043 27.7578C289.613 29.0781 289.898 30.6289 289.898 32.4102ZM278.109 32.4102C278.109 33.4414 278.227 34.3281 278.461 35.0703C278.695 35.8125 279.066 36.3828 279.574 36.7812C280.082 37.1797 280.746 37.3789 281.566 37.3789C282.418 37.3789 283.094 37.1797 283.594 36.7812C284.102 36.3828 284.465 35.8125 284.684 35.0703C284.91 34.3281 285.023 33.4414 285.023 32.4102C285.023 30.8633 284.766 29.6406 284.25 28.7422C283.734 27.8438 282.848 27.3945 281.59 27.3945C280.754 27.3945 280.078 27.5977 279.562 28.0039C279.055 28.4102 278.684 28.9883 278.449 29.7383C278.223 30.4883 278.109 31.3789 278.109 32.4102ZM300.551 41H295.922V27.6523H291.738V23.8672H304.723V27.6523H300.551V41ZM317.344 41H307.172V23.8672H317.344V27.582H311.801V30.2773H316.934V33.9922H311.801V37.2266H317.344V41Z" fill="#FF7E2B"/>
</svg>
