<svg width="14" height="14" viewBox="0 0 14 14" fill="none" xmlns="http://www.w3.org/2000/svg">
<path d="M13.3537 12.6462L10.2244 9.51749C11.1314 8.42856 11.5837 7.03186 11.4871 5.61795C11.3906 4.20404 10.7527 2.88177 9.70608 1.92622C8.65948 0.97067 7.28477 0.455399 5.86793 0.487599C4.4511 0.519799 3.10122 1.09699 2.0991 2.0991C1.09699 3.10122 0.519799 4.4511 0.487599 5.86793C0.455399 7.28477 0.97067 8.65948 1.92622 9.70608C2.88177 10.7527 4.20404 11.3906 5.61795 11.4871C7.03186 11.5837 8.42856 11.1314 9.51749 10.2244L12.6462 13.3537C12.6927 13.4002 12.7478 13.437 12.8085 13.4622C12.8692 13.4873 12.9343 13.5003 13 13.5003C13.0657 13.5003 13.1307 13.4873 13.1914 13.4622C13.2521 13.437 13.3073 13.4002 13.3537 13.3537C13.4002 13.3073 13.437 13.2521 13.4622 13.1914C13.4873 13.1307 13.5003 13.0657 13.5003 13C13.5003 12.9343 13.4873 12.8692 13.4622 12.8085C13.437 12.7478 13.4002 12.6927 13.3537 12.6462ZM1.49999 5.99999C1.49999 5.10997 1.76391 4.23994 2.25838 3.49992C2.75284 2.7599 3.45565 2.18313 4.27791 1.84253C5.10018 1.50194 6.00498 1.41282 6.8779 1.58646C7.75081 1.76009 8.55263 2.18867 9.18197 2.81801C9.81131 3.44735 10.2399 4.24917 10.4135 5.12208C10.5872 5.995 10.498 6.8998 10.1574 7.72207C9.81685 8.54433 9.24008 9.24714 8.50006 9.7416C7.76004 10.2361 6.89001 10.5 5.99999 10.5C4.80692 10.4987 3.6631 10.0241 2.81947 9.18051C1.97584 8.33688 1.50131 7.19306 1.49999 5.99999Z" fill="#6A7282"/>
</svg>
